<svg width="1821" height="1249" viewBox="0 0 1821 1249" fill="none" xmlns="http://www.w3.org/2000/svg">
<path d="M1201.13 1248.39C1158.1 1248.39 1116.83 1231.17 1086.39 1200.5C1055.96 1169.83 1038.87 1128.24 1038.87 1084.87C1038.87 1041.51 1055.96 999.914 1086.39 969.248C1116.83 938.582 1158.1 921.354 1201.13 921.354C1278.68 920.553 1352.79 888.946 1407.35 833.399C1461.91 777.853 1492.51 702.854 1492.51 624.698C1492.51 546.543 1461.91 471.544 1407.35 415.998C1352.79 360.451 1278.68 328.843 1201.13 328.043H645.541C602.502 328.043 561.226 310.813 530.792 280.144C500.359 249.475 483.262 207.88 483.262 164.507C483.262 121.135 500.359 79.5393 530.792 48.8705C561.226 18.2017 602.502 0.972168 645.541 0.972168L1201.13 0.972168C1542.38 0.972168 1820.02 280.793 1820.02 624.683C1820.02 968.573 1542.38 1248.39 1201.13 1248.39Z" fill="#8000FF"/>
<path d="M162.92 1248.39C119.888 1248.38 78.6199 1231.15 48.1913 1200.49C17.7627 1169.83 0.664444 1128.24 0.65625 1084.87L0.65625 164.522C0.65625 121.154 17.7519 79.5616 48.1822 48.8958C78.6126 18.2299 119.885 1.00195 162.92 1.00195C205.955 1.00195 247.228 18.2299 277.658 48.8958C308.088 79.5616 325.184 121.154 325.184 164.522V1084.87C325.184 1128.24 308.088 1169.83 277.658 1200.5C247.228 1231.16 205.955 1248.39 162.92 1248.39Z" fill="#8000FF"/>
<path d="M803.718 1248.38C777.643 1248.4 751.947 1242.09 728.81 1229.97C705.674 1217.85 685.78 1200.29 670.816 1178.77L30.1046 258.386C17.8693 240.798 9.19136 220.954 4.56635 199.986C-0.0586662 179.018 -0.540214 157.338 3.1492 136.183C6.83861 115.027 14.6267 94.8117 26.0689 76.6896C37.511 58.5675 52.3831 42.8941 69.8361 30.5641C87.289 18.2341 106.981 9.489 127.788 4.8282C148.594 0.167402 170.108 -0.317871 191.101 3.40009C212.094 7.11805 232.154 14.9664 250.137 26.4971C268.12 38.0278 283.673 53.015 295.908 70.603L936.403 990.954C953.45 1015.44 963.504 1044.17 965.472 1074.02C967.44 1103.87 961.245 1133.69 947.563 1160.23C933.88 1186.78 913.234 1209.04 887.871 1224.58C862.508 1240.12 833.401 1248.35 803.718 1248.38Z" fill="#8000FF"/>
<path fill-rule="evenodd" clip-rule="evenodd" d="M325.185 682.273L30.1046 258.39C17.8693 240.802 9.19136 220.957 4.56635 199.99C-0.058666 179.022 -0.540214 157.342 3.1492 136.186C6.83861 115.031 14.6267 94.8153 26.0689 76.6933C33.0115 65.6975 41.2169 55.6033 50.4954 46.6104C80.6869 17.3745 120.966 1.00073 162.921 1.00073C205.956 1.00073 247.229 18.2286 277.659 48.8945C308.089 79.5604 325.185 121.152 325.185 164.52V682.273Z" fill="#8000FF"/>
</svg>
